<svg width="91" height="91" viewBox="0 0 91 91" fill="none" xmlns="http://www.w3.org/2000/svg">
<path d="M45.5 57.3419C52.0402 57.3419 57.3421 52.04 57.3421 45.4998C57.3421 38.9596 52.0402 33.6577 45.5 33.6577C38.9598 33.6577 33.6579 38.9596 33.6579 45.4998C33.6579 52.04 38.9598 57.3419 45.5 57.3419Z" stroke="#3C3126"/>
<path d="M36.0263 54.9736L19.4474 71.5525M38.3947 38.3946L17.0789 17.0789" stroke="#3C3126" stroke-linejoin="round"/>
<path d="M69.1842 76.2891C73.1083 76.2891 76.2895 73.108 76.2895 69.1839C76.2895 65.2597 73.1083 62.0786 69.1842 62.0786C65.2601 62.0786 62.0789 65.2597 62.0789 69.1839C62.0789 73.108 65.2601 76.2891 69.1842 76.2891Z" stroke="#3C3126"/>
<path d="M83.3948 52.605C87.3189 52.605 90.5 49.4239 90.5 45.4998C90.5 41.5757 87.3189 38.3945 83.3948 38.3945C79.4706 38.3945 76.2895 41.5757 76.2895 45.4998C76.2895 49.4239 79.4706 52.605 83.3948 52.605Z" stroke="#3C3126"/>
<path d="M76.2895 45.5H57.3421M54.9737 54.9737L64.4474 64.4474" stroke="#3C3126" stroke-linejoin="round"/>
<path d="M78.6579 24.1842C85.1981 24.1842 90.5 18.8823 90.5 12.3421C90.5 5.80189 85.1981 0.5 78.6579 0.5C72.1177 0.5 66.8158 5.80189 66.8158 12.3421C66.8158 18.8823 72.1177 24.1842 78.6579 24.1842Z" stroke="#3C3126"/>
<path d="M69.1842 21.8157L54.9737 36.0262" stroke="#3C3126" stroke-linejoin="round"/>
<path d="M12.3421 19.4471C16.2662 19.4471 19.4474 16.266 19.4474 12.3418C19.4474 8.4177 16.2662 5.23657 12.3421 5.23657C8.41798 5.23657 5.23685 8.4177 5.23685 12.3418C5.23685 16.266 8.41798 19.4471 12.3421 19.4471Z" stroke="#3C3126"/>
<path d="M12.3421 90.4999C18.8823 90.4999 24.1842 85.198 24.1842 78.6578C24.1842 72.1176 18.8823 66.8157 12.3421 66.8157C5.80189 66.8157 0.5 72.1176 0.5 78.6578C0.5 85.198 5.80189 90.4999 12.3421 90.4999Z" stroke="#3C3126"/>
</svg>
