<svg width="95" height="95" viewBox="0 0 95 95" fill="none" xmlns="http://www.w3.org/2000/svg">
<path d="M47.5011 28.2318C49.0636 28.2318 50.5622 27.6456 51.6671 26.6021C52.772 25.5587 53.3928 24.1434 53.3928 22.6678C53.3928 21.1921 52.772 19.7769 51.6671 18.7334C50.5622 17.6899 49.0636 17.1037 47.5011 17.1037C45.9385 17.1037 44.4399 17.6899 43.335 18.7334C42.2301 19.7769 41.6094 21.1921 41.6094 22.6678C41.6094 24.1434 42.2301 25.5587 43.335 26.6021C44.4399 27.6456 45.9385 28.2318 47.5011 28.2318ZM53.2828 1.93251C51.6467 0.682172 49.6058 0 47.5011 0C45.3964 0 43.3555 0.682172 41.7194 1.93251L2.42583 32.0895C-2.35035 35.7692 0.399094 43.0692 6.55786 43.0692H8.22324V74.2277C3.55703 76.4755 0.367671 81.0529 0.367671 86.3424V91.2907C0.367671 92.2744 0.78149 93.2179 1.51809 93.9136C2.2547 94.6092 3.25374 95 4.29545 95H90.7067C91.7484 95 92.7475 94.6092 93.4841 93.9136C94.2207 93.2179 94.6345 92.2744 94.6345 91.2907V86.3424C94.6345 81.0603 91.4451 76.4755 86.7789 74.2277V43.0692H88.4443C94.6031 43.0692 97.3525 35.7617 92.5685 32.0895L53.2828 1.93251ZM46.6841 7.68942C46.9193 7.51494 47.2098 7.4201 47.5089 7.4201C47.8081 7.4201 48.0985 7.51494 48.3338 7.68942L84.7522 35.6505H10.2343L46.6841 7.68942ZM78.9233 72.7439H71.0678V43.0692H78.9233V72.7439ZM63.2122 72.7439H51.4289V43.0692H63.2122V72.7439ZM43.5733 72.7439H31.7899V43.0692H43.5733V72.7439ZM80.2352 80.1626C83.8488 80.1626 86.7789 82.9298 86.7789 86.3424V87.5813H8.22324V86.3424C8.22324 82.9298 11.1534 80.1626 14.7669 80.1626H80.2352ZM23.9344 72.7439H16.0788V43.0692H23.9344V72.7439Z" fill="#3C3126"/>
</svg>
