<svg width="243" height="148" viewBox="0 0 243 148" fill="none" xmlns="http://www.w3.org/2000/svg">
<path d="M0 15C0 6.71573 6.71573 0 15 0H50.2941C58.5784 0 65.2941 6.71573 65.2941 15V65.2941H15C6.71573 65.2941 0 58.5784 0 50.2941V15Z" fill="#6B9B7A"/>
<path d="M0 97.7059C0 89.4217 6.71573 82.7059 15 82.7059H65.2941V133C65.2941 141.284 58.5784 148 50.2941 148H15C6.71573 148 0 141.284 0 133V97.7059Z" fill="#8DAA81"/>
<path d="M88.5099 15C88.5099 6.71573 95.2256 0 103.51 0H138.804C147.088 0 153.804 6.71573 153.804 15V65.2941H88.5099V15Z" fill="#8DAA81"/>
<path d="M88.5099 82.7059H153.804V133C153.804 141.284 147.088 148 138.804 148H103.51C95.2256 148 88.5099 141.284 88.5099 133V82.7059Z" fill="#6B9B7A"/>
<path d="M177.02 82.7059H227.314C235.598 82.7059 242.314 89.4217 242.314 97.7059V133C242.314 141.284 235.598 148 227.314 148H192.02C183.736 148 177.02 141.284 177.02 133V82.7059Z" fill="#FF7043" fill-opacity="0.9"/>
<path d="M177.02 15C177.02 6.71573 183.736 0 192.02 0H227.314C235.598 0 242.314 6.71573 242.314 15V50.2941C242.314 58.5784 235.598 65.2941 227.314 65.2941H177.02V15Z" fill="#6B9B7A"/>
</svg>
