<svg width="200" height="200" viewBox="0 0 200 200" fill="none" xmlns="http://www.w3.org/2000/svg">
<rect width="200" height="200" fill="#E8DCC4"/>
<path d="M17 64C17 55.7157 23.7157 49 32 49H47C55.2843 49 62 55.7157 62 64V94H32C23.7157 94 17 87.2843 17 79V64Z" fill="#6B9B7A"/>
<path d="M17 121C17 112.716 23.7157 106 32 106H62V136C62 144.284 55.2843 151 47 151H32C23.7157 151 17 144.284 17 136V121Z" fill="#8DAA81"/>
<path d="M78 64C78 55.7157 84.7157 49 93 49H108C116.284 49 123 55.7157 123 64V94H78V64Z" fill="#8DAA81"/>
<path d="M78 106H123V136C123 144.284 116.284 151 108 151H93C84.7157 151 78 144.284 78 136V106Z" fill="#6B9B7A"/>
<path d="M139 106H161.5H169C177.284 106 184 112.716 184 121V136C184 144.284 177.284 151 169 151H154C145.716 151 139 144.284 139 136V106Z" fill="#FF7043"/>
<path d="M139 64C139 55.7157 145.716 49 154 49H169C177.284 49 184 55.7157 184 64V79C184 87.2843 177.284 94 169 94H139V64Z" fill="#6B9B7A"/>
</svg>
