<svg width="97" height="97" viewBox="0 0 97 97" fill="none" xmlns="http://www.w3.org/2000/svg">
<path d="M64.3406 43.2241V43.2769M12.4786 29.3862C10.1639 27.6072 8.38616 25.2227 7.34184 22.4965C6.29752 19.7702 6.02731 16.8083 6.56106 13.9381C7.09482 11.0678 8.41176 8.40106 10.3663 6.2325C12.3209 4.06394 14.837 2.47804 17.6365 1.65007C20.436 0.822106 23.41 0.784317 26.2296 1.54088C29.0493 2.29745 31.6048 3.81891 33.6139 5.9371C35.6229 8.05529 37.0072 10.6877 37.6137 13.5435C38.2202 16.3992 38.0254 19.3671 37.0506 22.119" stroke="#3C3126" stroke-width="2" stroke-linecap="round" stroke-linejoin="round"/>
<path d="M69.6178 6.28099V26.3517C76.149 30.1314 81.1216 36.1125 83.6454 43.2242H90.7225C92.1222 43.2242 93.4645 43.7802 94.4542 44.7699C95.444 45.7597 96 47.102 96 48.5018V59.0569C96 60.4566 95.444 61.799 94.4542 62.7888C93.4645 63.7785 92.1222 64.3345 90.7225 64.3345H83.6401C81.8669 69.3483 78.8534 73.8342 74.89 77.386V88.0837C74.89 90.1833 74.056 92.1968 72.5714 93.6814C71.0868 95.1661 69.0733 96.0001 66.9738 96.0001C64.8743 96.0001 62.8607 95.1661 61.3761 93.6814C59.8916 92.1968 59.0575 90.1833 59.0575 88.0837V85.0069C57.3137 85.3 55.5483 85.4465 53.78 85.4449H32.6701C30.9018 85.4465 29.1364 85.3 27.3926 85.0069V88.0837C27.3926 90.1833 26.5585 92.1968 25.074 93.6814C23.5894 95.1661 21.5759 96.0001 19.4763 96.0001C17.3768 96.0001 15.3633 95.1661 13.8787 93.6814C12.3941 92.1968 11.5601 90.1833 11.5601 88.0837V77.386C6.77848 73.111 3.40782 67.4846 1.89427 61.2517C0.380721 55.0188 0.795647 48.4731 3.08413 42.4812C5.37261 36.4893 9.42673 31.3336 14.7099 27.6966C19.993 24.0596 26.2561 22.1127 32.6701 22.1138H45.8638L69.6178 6.28099Z" stroke="#3C3126" stroke-width="2" stroke-linecap="round" stroke-linejoin="round"/>
</svg>
