<svg width="109" height="109" viewBox="0 0 109 109" fill="none" xmlns="http://www.w3.org/2000/svg">
<g clip-path="url(#clip0_50_60)">
<path d="M54.5 0C24.4204 0 0 24.4204 0 54.5C0 84.5796 24.4204 109 54.5 109C84.5251 109 108.903 84.6668 108.991 54.6613C108.996 54.6077 108.999 54.5539 109 54.5C108.999 54.4516 108.997 54.4033 108.993 54.355C108.915 24.3419 84.5317 0 54.5 0ZM54.5 3.27C56.8882 3.27 59.235 3.44658 61.536 3.76159C61.4379 3.89239 61.706 4.18669 62.6434 4.72406L63.7585 5.10338C65.1537 4.93007 64.5596 4.45265 63.6386 4.0984C67.0057 4.70339 70.3033 5.64629 73.4813 6.91278C72.6005 7.11116 71.2598 7.22016 69.9344 7.16784C69.9671 9.79583 71.1334 16.8176 75.1337 15.5434C74.423 15.6993 77.3922 18.6379 75.8575 19.1295C75.04 24.6231 70.5873 15.466 68.3277 15.5859C64.9487 16.156 68.9687 17.8259 67.75 18.6444C64.5531 21.3913 70.5165 24.2721 70.0347 19.656C70.4271 23.3772 71.6871 23.2628 74.7032 23.0688C67.8133 24.2329 78.54 26.9023 75.0563 29.1324C71.6043 28.8141 69.6695 30.1025 71.6206 33.4815C70.705 36.6098 73.7974 36.7472 74.8579 37.8285L76.0166 37.7216L76.7665 37.6235C76.7371 37.6203 76.7055 37.6268 76.6771 37.6224C80.9794 36.2981 78.7547 27.6882 83.3403 28.2506C82.38 31.5806 87.6796 34.7514 84.8369 29.9216C82.8989 27.4735 91.1229 31.683 87.4998 32.8864C91.0237 37.5385 88.5396 28.5417 91.1643 30.9865C92.8702 33.9579 94.8681 31.7463 95.3325 31.6351C96.4617 31.3201 98.1654 31.816 98.6134 32.0809C102.935 36.2076 94.5193 34.4963 94.3951 37.6519C94.8529 39.6716 89.7735 37.1123 89.0138 36.5619C86.7869 30.5592 81.714 36.5466 77.983 37.5113C77.8565 37.6105 74.7914 40.0019 74.4307 40.3191C73.5565 45.5784 69.3295 48.7753 67.7609 54.0956C67.4459 57.1694 68.4651 61.4215 68.0378 64.7384C69.0319 68.9916 73.0562 71.4266 76.5638 73.5085C79.2038 75.2089 81.956 71.952 84.7965 71.9149C87.2818 68.2591 91.2603 70.9394 93.5078 70.6691C90.9191 74.7457 95.4328 77.8958 94.1553 82.3059C92.153 84.7562 91.5894 88.0121 90.5169 90.9365C81.266 100.082 68.5501 105.73 54.5 105.73C47.691 105.738 40.949 104.387 34.6696 101.754C35.8261 100.702 36.5008 99.1344 38.0563 98.6853C45.1206 100.393 42.0457 91.6527 46.8417 89.6754C50.0561 83.785 39.7959 82.8476 36.1335 80.7025C29.9401 79.7673 30.5222 72.2289 24.8978 70.5982C20.2914 69.8646 21.9624 63.2265 18.5856 63.5819C15.6709 64.1236 14.5144 60.1124 12.8903 60.3991C12.4979 60.8133 10.8564 57.7068 9.0906 61.1294C4.10385 60.0252 7.59294 54.2994 5.48597 51.0938C4.61288 49.6255 7.97771 42.0969 4.37308 46.4721C4.23138 46.2215 4.13546 45.8803 4.0766 45.4803C4.53754 42.884 5.19822 40.3273 6.05277 37.8328C6.5836 37.2431 7.194 36.9499 7.86653 37.1712C10.5316 36.5651 9.64541 40.7518 9.86559 43.3449C11.8745 44.206 10.9338 35.7433 15.1085 35.546C17.9501 32.3468 21.2452 29.6229 24.7005 27.42C26.0477 28.3814 28.9471 28.2648 31.2209 26.1306C28.6877 25.6215 28.5057 23.689 31.8912 22.9282C37.278 20.613 29.4605 25.4657 33.8587 26.1654C38.6329 27.5716 34.5846 22.0147 36.8475 19.8413C34.4778 18.2281 38.2808 11.9562 34.1366 14.7423C35.57 13.7177 33.3409 11.7949 34.6206 11.045C35.1492 12.5274 37.8143 14.5635 38.7615 11.1453C41.4244 11.5998 41.0505 7.74227 42.4893 5.66691C49.2418 3.28744 43.6512 9.83398 43.3973 13.0822C45.5707 19.4151 49.2364 10.6406 53.0983 10.4226C57.794 10.5828 57.2577 6.09419 57.1847 3.69183C56.1703 3.50201 55.1469 3.36377 54.1185 3.27763C54.246 3.27763 54.3725 3.27 54.5 3.27ZM36.3831 8.68403C37.2475 8.5783 35.8839 10.4542 34.02 10.7638C31.5348 12.8358 33.6527 10.0356 34.7121 9.58001C35.5591 8.97397 36.0954 8.71891 36.3831 8.68403ZM74.5004 10.0553C74.5756 10.0487 74.6933 10.0694 74.871 10.1294C75.6711 11.4548 73.9827 10.0967 74.5004 10.0553ZM30.6246 10.6787C32.5354 10.8172 30.4993 15.2764 28.376 15.4965C27.238 15.3908 26.4608 17.186 25.5812 17.7725C25.494 18.1649 25.651 11.6292 28.6223 11.3774C29.5325 10.8433 30.1832 10.6471 30.6246 10.6787ZM58.1341 10.7986C57.1596 10.839 56.4358 11.2499 56.8337 12.3094C57.4027 12.8576 58.2322 12.9906 58.9875 12.995C63.6418 12.4173 60.2781 10.7092 58.1341 10.7986ZM74.6203 11.6477C74.8274 11.6674 75.3103 11.8505 76.2084 12.3039C78.0222 14.5929 73.7265 11.5671 74.6203 11.6488M65.6572 13.3296C65.5984 13.3547 65.5493 13.4648 65.5319 13.7057C66.3854 14.6649 65.9134 13.2163 65.6572 13.3296ZM68.9534 14.121C68.8836 14.1024 68.8771 14.2539 69.0166 14.7314C69.9333 15.7756 69.1605 14.1776 68.9534 14.121ZM78.2838 14.1319C79.0337 14.1286 81.132 15.4333 80.7091 16.8569C78.6827 18.494 79.6212 17.6199 79.2256 15.805C77.8685 14.6049 77.8347 14.134 78.2838 14.1319ZM19.2069 20.7525C19.3551 20.77 19.5666 20.9476 19.8565 21.3847C19.1328 23.6061 18.566 20.6773 19.2069 20.7525ZM29.3275 22.0409C29.4627 22.042 29.6829 22.1499 30.0066 22.4551C29.2992 22.9892 28.9242 22.0354 29.3275 22.0409ZM91.3376 22.4333C91.5306 22.4104 91.9099 22.6807 92.5432 23.4121C93.2996 22.1695 97.204 25.0536 93.8163 25.5747C93.1776 28.1231 90.506 22.5292 91.3387 22.4322M19.2865 23.4557C19.3573 23.4394 19.4325 23.483 19.5077 23.6127C18.4918 26.6069 18.7905 23.5658 19.2865 23.4557ZM85.2151 26.5317C85.25 26.5237 85.2863 26.5245 85.3208 26.5339C85.9312 26.6352 88.3369 28.0032 89.2961 28.9559C89.8836 30.2704 87.37 27.9291 86.861 28.0817C85.4375 27.02 85.0451 26.5829 85.2151 26.5317ZM18.033 26.5568C18.1572 26.5818 18.2542 26.7094 18.2815 27.0037C16.4426 28.2822 17.4945 26.4478 18.033 26.5568ZM92.5628 28.994C92.6565 28.9537 92.9269 29.1052 93.4849 29.6306C93.583 30.9625 92.2805 29.1139 92.5628 28.994ZM81.3641 31.5163C81.1385 31.5522 80.7919 31.9457 80.3188 32.9899C81.6377 34.529 82.041 31.4094 81.3641 31.5163ZM95.2486 32.615C95.0022 32.6477 94.7439 32.9235 94.5717 33.6363C96.6209 34.614 95.9876 32.5191 95.2486 32.615ZM55.4189 35.6452C55.154 35.6212 54.7834 35.7324 54.3321 36.1063C56.0696 37.0044 56.2168 35.7149 55.42 35.6441M57.8245 36.4627C57.7155 36.4224 57.4997 36.4976 57.1324 36.806C57.5106 37.7521 58.1493 36.5848 57.8245 36.4627ZM66.4791 41.9977C66.3734 42.0228 66.236 42.1394 66.0594 42.4043C66.7287 43.5117 66.9314 41.8887 66.478 41.9977M11.796 42.4642C11.6968 42.4653 11.6368 42.7127 11.6957 43.4223C12.7595 44.6889 12.0946 42.461 11.796 42.4642ZM11.2041 44.2627C11.1049 44.2464 10.9556 44.5418 10.7572 45.4214C11.3567 47.1665 11.5039 44.314 11.2041 44.2627ZM8.15974 45.1827C6.04405 44.9647 9.93753 48.7001 10.0912 50.3471C14.0098 51.4044 9.54295 52.6012 12.8566 53.9365C17.8455 55.7328 14.7619 51.7205 12.6462 50.8758C13.4757 49.5427 10.5414 48.5595 9.46338 45.5358C8.88677 45.3255 8.46276 45.2143 8.15974 45.1827ZM69.966 46.0176C69.7415 46.0176 69.494 46.4318 69.3894 47.6668C70.8522 48.0189 70.4609 46.0176 69.966 46.0176ZM12.2789 46.9071C12.265 46.9033 12.2506 46.9024 12.2363 46.9043C12.2221 46.9061 12.2084 46.9108 12.196 46.918C12.0816 46.991 12.0739 47.3463 12.3922 48.1202L12.6386 48.2837C12.8424 47.5611 12.4958 46.9627 12.2789 46.9071ZM66.2404 46.9986C65.5995 47.0357 65.1864 47.3256 65.6409 48.0843L65.8327 48.1736H66.9216C70.1557 48.0668 67.6487 46.918 66.2404 46.9986ZM9.2432 50.9728C8.95653 50.9117 8.9162 51.2442 9.6029 52.4028C11.7001 53.1321 9.8754 51.1057 9.2432 50.9728ZM3.39099 51.1363C4.11802 54.2853 4.58127 57.9466 5.93069 60.7141C6.82231 64.1018 7.47958 59.8377 7.70194 62.5071C8.4584 67.5495 5.3846 72.7444 9.1669 77.5797C10.9654 82.4552 14.9156 85.8713 17.6798 90.1168C8.7636 80.8998 3.27 68.3495 3.27 54.5C3.27 53.3686 3.31905 52.2492 3.39099 51.1363ZM16.4328 54.0444C16.1712 54.0771 15.938 54.3561 15.8748 55.0766C18.2771 56.0587 17.2187 53.9452 16.4328 54.0444ZM20.2587 58.0174C20.153 57.9749 20.0429 58.4523 19.971 59.8857L20.0146 60.6759C20.8648 62.9475 20.577 58.1428 20.2587 58.0174ZM58.4916 61.2155C58.2202 61.1861 58.2169 61.3975 58.9712 62.1137C60.9844 62.5126 59.0889 61.2809 58.4916 61.2155ZM61.4193 61.8858C61.294 61.888 61.1305 61.9785 60.9256 62.2139C61.7605 63.5263 61.9611 61.876 61.4193 61.8858ZM60.9332 63.3225C60.7413 63.353 60.4721 63.4805 60.1081 63.7563C61.1098 64.8376 61.7649 63.1873 60.9332 63.3225ZM59.5271 63.5328C59.4246 63.5219 59.2698 63.6724 59.0584 64.1269C59.6579 65.049 59.8323 63.5655 59.5271 63.5328ZM91.3769 73.684C91.2744 73.6731 91.1196 73.8224 90.9082 74.278C91.5077 75.2002 91.6832 73.7156 91.3769 73.684Z" fill="#3C3126"/>
</g>
<defs>
<clipPath id="clip0_50_60">
<rect width="109" height="109" fill="white"/>
</clipPath>
</defs>
</svg>
