<svg width="58" height="35" viewBox="0 0 58 35" fill="none" xmlns="http://www.w3.org/2000/svg">
<path d="M0 7.72059C0 3.45663 3.45663 0 7.72059 0V0C11.9845 0 15.4412 3.45662 15.4412 7.72058V15.4412H7.72059C3.45663 15.4412 0 11.9845 0 7.72059V7.72059Z" fill="#6B9B7A"/>
<path d="M0 27.2794C0 23.0155 3.45662 19.5588 7.72058 19.5588H15.4412V27.2794C15.4412 31.5434 11.9845 35 7.72059 35V35C3.45663 35 0 31.5434 0 27.2794V27.2794Z" fill="#8DAA81"/>
<path d="M20.9314 7.72059C20.9314 3.45663 24.388 0 28.652 0V0C32.9159 0 36.3726 3.45662 36.3726 7.72058V15.4412H20.9314V7.72059Z" fill="#8DAA81"/>
<path d="M20.9314 19.5588H36.3726V27.2794C36.3726 31.5434 32.9159 35 28.652 35V35C24.388 35 20.9314 31.5434 20.9314 27.2794V19.5588Z" fill="#6B9B7A"/>
<path d="M41.8627 19.5588H49.5833C53.8472 19.5588 57.3038 23.0155 57.3038 27.2794V27.2794C57.3038 31.5434 53.8472 35 49.5833 35V35C45.3193 35 41.8627 31.5434 41.8627 27.2794V19.5588Z" fill="#FF7043" fill-opacity="0.9"/>
<path d="M41.8627 7.72059C41.8627 3.45663 45.3193 0 49.5833 0V0C53.8472 0 57.3038 3.45663 57.3038 7.72059V7.72059C57.3038 11.9845 53.8472 15.4412 49.5833 15.4412H41.8627V7.72059Z" fill="#6B9B7A"/>
</svg>
