<svg width="93" height="86" viewBox="0 0 93 86" fill="none" xmlns="http://www.w3.org/2000/svg">
<path fill-rule="evenodd" clip-rule="evenodd" d="M7.55267 1.90886C6.92111 0.936359 5.9571 0.274194 4.87272 0.0680307C3.78835 -0.138133 2.67242 0.128592 1.77044 0.80953C0.868462 1.49047 0.254312 2.52984 0.0630976 3.699C-0.128117 4.86815 0.119268 6.07132 0.75083 7.04382L27.5065 48.2381C28.1385 49.209 29.1021 49.8698 30.1857 50.0753C31.2692 50.2807 32.3841 50.0141 33.2854 49.3338L50.5557 36.2923L69.4534 65.3976L58.4801 74.1206C57.9591 74.5351 57.5618 75.1048 57.3371 75.7596C57.1125 76.4144 57.0703 77.1257 57.2156 77.806C57.361 78.4863 57.6877 79.106 58.1555 79.5887C58.6233 80.0715 59.2117 80.3963 59.8484 80.5232L84.6911 85.5006C85.125 85.5869 85.5706 85.5791 86.0017 85.4777C86.4328 85.3763 86.8409 85.1832 87.202 84.9099C87.5632 84.6365 87.8702 84.2883 88.1051 83.8855C88.34 83.4828 88.4982 83.0336 88.5703 82.5643L92.9543 54.3542C93.0637 53.6508 92.9757 52.9281 92.7017 52.2789C92.4277 51.6298 91.9802 51.0836 91.4164 50.7104C90.8527 50.3372 90.1984 50.1541 89.5374 50.1844C88.8765 50.2148 88.239 50.4573 87.7068 50.8808L76.1423 60.0764L54.9729 27.4906C54.6604 27.0082 54.2628 26.597 53.8029 26.2805C53.3429 25.964 52.8295 25.7483 52.2922 25.6459C51.7549 25.5435 51.2041 25.5563 50.6713 25.6835C50.1385 25.8108 49.6343 26.0501 49.1874 26.3876L31.9237 39.4363L7.55267 1.90886Z" fill="#3C3126"/>
</svg>
