<svg width="107" height="85" viewBox="0 0 107 85" fill="none" xmlns="http://www.w3.org/2000/svg">
<path d="M24.3333 60.1427V60.2019M82.6667 71.9713C82.6667 75.1084 83.8958 78.1171 86.0838 80.3354C88.2717 82.5537 91.2391 83.7999 94.3333 83.7999C97.4275 83.7999 100.395 82.5537 102.583 80.3354C104.771 78.1171 106 75.1084 106 71.9713C106 68.8342 104.771 65.8255 102.583 63.6072C100.395 61.389 97.4275 60.1427 94.3333 60.1427C91.2391 60.1427 88.2717 61.389 86.0838 63.6072C83.8958 65.8255 82.6667 68.8342 82.6667 71.9713ZM82.6667 71.9713H44.75M1 60.1427C1 66.417 3.45833 72.4343 7.83417 76.8709C12.21 81.3074 18.1449 83.7999 24.3333 83.7999C30.5217 83.7999 36.4566 81.3074 40.8325 76.8709C45.2083 72.4343 47.6667 66.417 47.6667 60.1427C47.6667 53.8685 45.2083 47.8512 40.8325 43.4146C36.4566 38.978 30.5217 36.4856 24.3333 36.4856C18.1449 36.4856 12.21 38.978 7.83417 43.4146C3.45833 47.8512 1 53.8685 1 60.1427Z" stroke="#3C3126" stroke-width="2" stroke-linecap="round" stroke-linejoin="round"/>
<path d="M100.167 61.3257V36.4857C100.167 34.9171 99.5521 33.4128 98.4582 32.3037C97.3642 31.1945 95.8805 30.5714 94.3334 30.5714H59.3334L47.6667 1H12.6667V39.4429" stroke="#3C3126" stroke-width="2" stroke-linecap="round" stroke-linejoin="round"/>
<path d="M88.5 1H82.6666C81.1196 1 79.6358 1.62311 78.5419 2.73226C77.4479 3.8414 76.8333 5.34572 76.8333 6.91429V30.5714" stroke="#3C3126" stroke-width="2" stroke-linecap="round" stroke-linejoin="round"/>
</svg>
