<svg width="40" height="40" viewBox="0 0 40 40" fill="none" xmlns="http://www.w3.org/2000/svg">
<path d="M37.4998 7.50003C37.496 6.20345 36.9875 4.95931 36.0823 4.03107C35.177 3.10282 33.946 2.56339 32.6499 2.52699C31.3539 2.4906 30.0945 2.9601 29.1386 3.83608C28.1827 4.71206 27.6053 5.92572 27.5286 7.22003L11.9823 10.3288C11.6189 9.5733 11.0708 8.92165 10.3888 8.43403C9.70686 7.94642 8.91296 7.63858 8.08053 7.53898C7.24811 7.43938 6.404 7.55122 5.62623 7.86417C4.84846 8.17712 4.16213 8.68108 3.63067 9.32947C3.09921 9.97786 2.73977 10.7498 2.58557 11.5738C2.43138 12.3979 2.4874 13.2475 2.74845 14.0442C3.00951 14.8409 3.46719 15.5589 4.07918 16.1319C4.69117 16.7049 5.43773 17.1144 6.24985 17.3225V27.6775C5.39685 27.8961 4.61689 28.3365 3.98915 28.954C3.36141 29.5716 2.90826 30.3442 2.6757 31.1935C2.44315 32.0428 2.43947 32.9385 2.66505 33.7897C2.89063 34.6408 3.33742 35.4172 3.96007 36.0398C4.58272 36.6625 5.35905 37.1093 6.21022 37.3348C7.06139 37.5604 7.9571 37.5567 8.80639 37.3242C9.65569 37.0916 10.4283 36.6385 11.0458 36.0107C11.6634 35.383 12.1038 34.603 12.3223 33.75H22.6773C22.8851 34.5627 23.2945 35.3098 23.8675 35.9224C24.4406 36.5349 25.1588 36.9931 25.9559 37.2545C26.7529 37.5159 27.603 37.5721 28.4275 37.4179C29.252 37.2638 30.0243 36.9042 30.6731 36.3725C31.3218 35.8407 31.826 35.154 32.139 34.3758C32.452 33.5976 32.5637 32.753 32.4639 31.9202C32.364 31.0873 32.0557 30.2931 31.5676 29.611C31.0794 28.9288 30.4272 28.3808 29.6711 28.0175L32.7799 12.4713C34.0524 12.4014 35.25 11.8477 36.1276 10.9235C37.0051 9.99923 37.496 8.77447 37.4998 7.50003ZM32.4998 5.00003C32.9943 5.00003 33.4777 5.14665 33.8888 5.42136C34.2999 5.69606 34.6203 6.0865 34.8095 6.54332C34.9988 7.00014 35.0483 7.5028 34.9518 7.98775C34.8554 8.47271 34.6172 8.91817 34.2676 9.2678C33.918 9.61743 33.4725 9.85553 32.9876 9.95199C32.5026 10.0485 32 9.99895 31.5431 9.80973C31.0863 9.62051 30.6959 9.30008 30.4212 8.88895C30.1465 8.47783 29.9998 7.99448 29.9998 7.50003C29.9998 6.83699 30.2632 6.2011 30.7321 5.73226C31.2009 5.26342 31.8368 5.00003 32.4998 5.00003ZM4.99985 12.5C4.99985 12.0056 5.14647 11.5222 5.42118 11.1111C5.69588 10.7 6.08632 10.3795 6.54314 10.1903C6.99996 10.0011 7.50262 9.9516 7.98757 10.0481C8.47253 10.1445 8.91798 10.3826 9.26762 10.7323C9.61725 11.0819 9.85535 11.5274 9.95181 12.0123C10.0483 12.4973 9.99877 12.9999 9.80955 13.4567C9.62033 13.9136 9.2999 14.304 8.88877 14.5787C8.47765 14.8534 7.9943 15 7.49985 15C6.83681 15 6.20092 14.7366 5.73208 14.2678C5.26324 13.799 4.99985 13.1631 4.99985 12.5ZM7.49985 35C7.0054 35 6.52205 34.8534 6.11092 34.5787C5.6998 34.304 5.37937 33.9136 5.19015 33.4567C5.00093 32.9999 4.95142 32.4973 5.04789 32.0123C5.14435 31.5274 5.38245 31.0819 5.73208 30.7323C6.08171 30.3826 6.52717 30.1445 7.01212 30.0481C7.49708 29.9516 7.99974 30.0011 8.45656 30.1903C8.91337 30.3796 9.30382 30.7 9.57852 31.1111C9.85323 31.5222 9.99985 32.0056 9.99985 32.5C9.99985 33.1631 9.73646 33.799 9.26762 34.2678C8.79878 34.7366 8.16289 35 7.49985 35ZM22.6773 31.25H12.3223C12.0977 30.391 11.6484 29.6072 11.0205 28.9794C10.3926 28.3515 9.60891 27.9022 8.74985 27.6775V17.3225C9.77088 17.0564 10.6812 16.4732 11.3498 15.657C12.0185 14.8407 12.4111 13.8335 12.4711 12.78L28.0173 9.67128C28.5069 10.6793 29.3208 11.4937 30.3286 11.9838L27.2198 27.5288C26.1664 27.5888 25.1591 27.9814 24.3429 28.65C23.5267 29.3187 22.9435 30.229 22.6773 31.25ZM27.4998 35C27.0054 35 26.522 34.8534 26.1109 34.5787C25.6998 34.304 25.3794 33.9136 25.1901 33.4567C25.0009 32.9999 24.9514 32.4973 25.0479 32.0123C25.1443 31.5274 25.3825 31.0819 25.7321 30.7323C26.0817 30.3826 26.5272 30.1445 27.0121 30.0481C27.4971 29.9516 27.9997 30.0011 28.4566 30.1903C28.9134 30.3796 29.3038 30.7 29.5785 31.1111C29.8532 31.5222 29.9998 32.0056 29.9998 32.5C29.9998 33.1631 29.7365 33.799 29.2676 34.2678C28.7988 34.7366 28.1629 35 27.4998 35Z" fill="#3C3126"/>
</svg>
