<svg width="40" height="40" viewBox="0 0 40 40" fill="none" xmlns="http://www.w3.org/2000/svg">
<path d="M38.6923 7.48279C38.6744 7.17698 38.5449 6.88838 38.3283 6.67178C38.1117 6.45517 37.8231 6.32564 37.5173 6.30779C29.4298 5.83904 22.936 8.29841 20.1454 12.9047C18.3016 15.95 18.3048 19.6484 20.1204 23.1765C19.0868 24.4067 18.3315 25.8458 17.9063 27.3953L15.3641 24.8437C16.586 22.2922 16.5391 19.6328 15.2079 17.4234C13.1454 14.0187 8.38446 12.1937 2.47352 12.5406C2.16772 12.5585 1.87912 12.688 1.66252 12.9046C1.44591 13.1212 1.31638 13.4098 1.29852 13.7156C0.950087 19.6265 2.77665 24.3875 6.18134 26.45C7.30481 27.1366 8.59593 27.4999 9.91259 27.5C11.1905 27.4841 12.4486 27.1814 13.5938 26.614L17.5001 30.5203V35C17.5001 35.3315 17.6318 35.6494 17.8662 35.8839C18.1006 36.1183 18.4186 36.25 18.7501 36.25C19.0816 36.25 19.3995 36.1183 19.634 35.8839C19.8684 35.6494 20.0001 35.3315 20.0001 35V30.3922C19.9944 28.4035 20.6711 26.4732 21.9173 24.9234C23.525 25.7637 25.3081 26.2133 27.122 26.2359C28.8757 26.2416 30.5968 25.7625 32.0954 24.8515C36.7016 22.064 39.1673 15.5703 38.6923 7.48279ZM7.4704 24.3125C5.07352 22.8609 3.71727 19.425 3.75009 15C8.17509 14.9625 11.611 16.3234 13.0626 18.7203C13.8204 19.9703 13.9438 21.4281 13.447 22.9297L9.6329 19.1156C9.39657 18.8911 9.08188 18.7677 8.75593 18.7719C8.42998 18.7761 8.11855 18.9074 7.88805 19.1379C7.65755 19.3684 7.52621 19.6799 7.52204 20.0058C7.51786 20.3318 7.64119 20.6465 7.86571 20.8828L11.6798 24.6968C10.1782 25.1937 8.72196 25.0703 7.4704 24.3125ZM30.8001 22.7156C28.7063 23.9828 26.2454 24.0797 23.7454 23.0281L32.1345 14.6375C32.359 14.4011 32.4823 14.0865 32.4781 13.7605C32.474 13.4346 32.3426 13.1231 32.1121 12.8926C31.8816 12.6621 31.5702 12.5308 31.2442 12.5266C30.9183 12.5224 30.6036 12.6458 30.3673 12.8703L21.9766 21.25C20.9204 18.75 21.0157 16.2875 22.2891 14.1953C24.4673 10.6015 29.6329 8.59841 36.247 8.7531C36.397 15.3656 34.397 20.5375 30.8001 22.7156Z" fill="#3C3126"/>
</svg>
