<svg width="43" height="43" viewBox="0 0 43 43" fill="none" xmlns="http://www.w3.org/2000/svg">
<path d="M9.90983 1.72182C10.1499 1.57552 10.4211 1.49909 10.6968 1.50001C10.9725 1.50093 11.2433 1.57918 11.4825 1.72708C13.0161 2.66391 16.5488 4.92705 19.7839 7.76596C19.8637 7.83762 19.9277 7.92753 19.9714 8.02918C20.0151 8.13083 20.0372 8.24169 20.0363 8.35371C20.0353 8.46574 20.0113 8.57615 19.966 8.67694C19.9207 8.77772 19.8551 8.86638 19.7741 8.93648C17.1467 11.1187 14.396 13.1225 11.5381 14.9364C11.2853 15.0989 10.9965 15.1845 10.7022 15.1842C10.408 15.1838 10.1193 15.0974 9.86691 14.9343C8.29327 13.9238 4.77428 11.5912 1.84846 9.13437C1.74027 9.04154 1.65279 8.92367 1.59248 8.78948C1.53217 8.65529 1.50057 8.50819 1.50001 8.35905C1.49945 8.20991 1.52994 8.06254 1.58924 7.92782C1.64854 7.7931 1.73512 7.67448 1.84261 7.5807C3.28942 6.34492 6.3528 3.85653 9.91081 1.72287" stroke="#3C3126" stroke-width="3" stroke-linecap="round" stroke-linejoin="round"/>
<path d="M9.90983 15.4061C10.1499 15.2598 10.4211 15.1833 10.6968 15.1843C10.9725 15.1852 11.2433 15.2634 11.4825 15.4113C13.0161 16.3482 16.5488 18.6113 19.7839 21.4502C19.8637 21.5219 19.9277 21.6118 19.9714 21.7134C20.0151 21.8151 20.0372 21.9259 20.0363 22.038C20.0353 22.15 20.0113 22.2604 19.966 22.3612C19.9207 22.462 19.8551 22.5506 19.7741 22.6207C17.1467 24.8029 14.396 26.8068 11.5381 28.6207C11.2853 28.7832 10.9965 28.8688 10.7022 28.8684C10.408 28.868 10.1193 28.7817 9.86691 28.6185C8.29327 27.608 4.77428 25.2754 1.84846 22.8186C1.74027 22.7258 1.65279 22.6079 1.59248 22.4737C1.53217 22.3395 1.50057 22.1924 1.50001 22.0433C1.49945 21.8942 1.52994 21.7468 1.58924 21.6121C1.64854 21.4774 1.73512 21.3587 1.84261 21.2649C3.28942 20.0292 6.3528 17.5408 9.91081 15.4071M20.1878 28.0375C20.4405 27.8911 20.723 27.8149 21.0098 27.8158C21.2967 27.8167 21.5788 27.8947 21.8307 28.0428C23.4326 28.9796 27.1243 31.2427 30.5038 34.0816C30.5869 34.151 30.654 34.2401 30.6999 34.3421C30.7457 34.4441 30.7691 34.5562 30.7682 34.6695C30.7672 34.7829 30.742 34.8945 30.6944 34.9955C30.6469 35.0966 30.5783 35.1844 30.494 35.2522C29.1584 36.3248 26.016 38.7448 21.8892 41.2521C21.6229 41.4151 21.322 41.5006 21.0158 41.5003C20.7096 41.4999 20.4088 41.4136 20.1429 41.25C18.4551 40.2132 14.6308 37.7858 11.5284 35.2595C11.4443 35.1916 11.376 35.1036 11.3288 35.0024C11.2816 34.9012 11.2567 34.7896 11.2561 34.6764C11.2556 34.5631 11.2793 34.4512 11.3255 34.3495C11.3717 34.2478 11.4392 34.159 11.5225 34.0901C12.9176 32.9364 16.2659 30.2901 20.1878 28.0375ZM30.9867 1.722C31.2416 1.57612 31.526 1.50028 31.8146 1.5012C32.1032 1.50212 32.3871 1.57976 32.6413 1.72727C34.2179 2.64305 37.8042 4.82408 41.1436 7.57141C41.2556 7.6627 41.3461 7.78103 41.408 7.9169C41.4699 8.05278 41.5014 8.20242 41.5 8.35381C41.4985 8.50519 41.4642 8.65411 41.3998 8.7886C41.3354 8.9231 41.2426 9.03942 41.129 9.12824C38.4275 11.2414 35.6129 13.1809 32.6998 14.9366C32.4311 15.0991 32.1281 15.1843 31.8201 15.1839C31.512 15.1836 31.2092 15.0977 30.9408 14.9345C29.2404 13.8977 25.3867 11.4703 22.2619 8.94403C22.1774 8.87649 22.1086 8.78862 22.061 8.6874C22.0134 8.58617 21.9883 8.47438 21.9877 8.36088C21.9872 8.24738 22.0111 8.1353 22.0577 8.03353C22.1043 7.93176 22.1722 7.84309 22.256 7.77457C23.6619 6.6209 27.0345 3.97461 30.9867 1.722Z" stroke="#3C3126" stroke-width="3" stroke-linecap="round" stroke-linejoin="round"/>
<path d="M30.9867 15.4049C31.2416 15.2588 31.5259 15.1828 31.8145 15.1835C32.1031 15.1843 32.3871 15.2617 32.6414 15.4091C34.2179 16.3249 37.8042 18.5059 41.1437 21.2532C41.2556 21.3445 41.3462 21.4628 41.4081 21.5987C41.4699 21.7346 41.5014 21.8842 41.5 22.0356C41.4986 22.187 41.4643 22.3359 41.3999 22.4704C41.3354 22.6049 41.2427 22.7212 41.1291 22.8101C38.4276 24.9233 35.613 26.8627 32.6999 28.6184C32.4312 28.7809 32.1282 28.8661 31.8201 28.8657C31.5121 28.8654 31.2093 28.7795 30.9409 28.6163C29.2404 27.5795 25.3868 25.1521 22.262 22.6258C22.1774 22.5583 22.1086 22.4704 22.061 22.3692C22.0134 22.268 21.9884 22.1562 21.9878 22.0427C21.9872 21.9292 22.0112 21.8171 22.0578 21.7153C22.1043 21.6136 22.1722 21.5249 22.2561 21.4564C23.6619 20.3027 27.0346 17.6575 30.9867 15.4049Z" stroke="#3C3126" stroke-width="3" stroke-linecap="round" stroke-linejoin="round"/>
</svg>
