<svg width="40" height="40" viewBox="0 0 40 40" fill="none" xmlns="http://www.w3.org/2000/svg">
<path d="M18.75 18.75V5C18.75 4.66848 18.8817 4.35054 19.1161 4.11612C19.3505 3.8817 19.6685 3.75 20 3.75C20.3315 3.75 20.6495 3.8817 20.8839 4.11612C21.1183 4.35054 21.25 4.66848 21.25 5V18.75H35C35.3315 18.75 35.6495 18.8817 35.8839 19.1161C36.1183 19.3505 36.25 19.6685 36.25 20C36.25 20.3315 36.1183 20.6495 35.8839 20.8839C35.6495 21.1183 35.3315 21.25 35 21.25H21.25V35C21.25 35.3315 21.1183 35.6495 20.8839 35.8839C20.6495 36.1183 20.3315 36.25 20 36.25C19.6685 36.25 19.3505 36.1183 19.1161 35.8839C18.8817 35.6495 18.75 35.3315 18.75 35V21.25H5C4.66848 21.25 4.35054 21.1183 4.11612 20.8839C3.8817 20.6495 3.75 20.3315 3.75 20C3.75 19.6685 3.8817 19.3505 4.11612 19.1161C4.35054 18.8817 4.66848 18.75 5 18.75H18.75Z" fill="#3C3126"/>
</svg>
