<svg width="35" height="35" viewBox="0 0 35 35" fill="none" xmlns="http://www.w3.org/2000/svg">
<path d="M17.5 2.5C15.5302 2.5 13.5796 2.88799 11.7597 3.64181C9.93986 4.39563 8.28628 5.50052 6.8934 6.8934C5.50052 8.28628 4.39563 9.93986 3.64181 11.7597C2.88799 13.5796 2.5 15.5302 2.5 17.5C2.5 19.4698 2.88799 21.4204 3.64181 23.2403C4.39563 25.0601 5.50052 26.7137 6.8934 28.1066C8.28628 29.4995 9.93986 30.6044 11.7597 31.3582C13.5796 32.112 15.5302 32.5 17.5 32.5C21.4782 32.5 25.2936 30.9196 28.1066 28.1066C30.9196 25.2936 32.5 21.4782 32.5 17.5C32.5 13.5218 30.9196 9.70644 28.1066 6.8934C25.2936 4.08035 21.4782 2.5 17.5 2.5ZM0 17.5C0 12.8587 1.84374 8.40752 5.12563 5.12563C8.40752 1.84374 12.8587 0 17.5 0C22.1413 0 26.5925 1.84374 29.8744 5.12563C33.1563 8.40752 35 12.8587 35 17.5C35 22.1413 33.1563 26.5925 29.8744 29.8744C26.5925 33.1563 22.1413 35 17.5 35C12.8587 35 8.40752 33.1563 5.12563 29.8744C1.84374 26.5925 0 22.1413 0 17.5ZM17.5 28.125C22.3325 28.125 26.25 25.09 26.25 20.535C26.25 18.8575 24.89 17.5 23.215 17.5H11.7875C10.11 17.5 8.7525 18.86 8.7525 20.535C8.7525 25.0875 12.67 28.125 17.5025 28.125H17.5ZM17.5 15.625C18.1154 15.6252 18.7248 15.5041 19.2934 15.2688C19.8621 15.0334 20.3788 14.6884 20.814 14.2533C21.2493 13.8183 21.5946 13.3018 21.8303 12.7333C22.066 12.1648 22.1873 11.5554 22.1875 10.94C22.1877 10.3246 22.0666 9.71518 21.8313 9.14655C21.5959 8.57793 21.2509 8.06123 20.8158 7.62595C20.3808 7.19068 19.8643 6.84536 19.2958 6.6097C18.7273 6.37404 18.1179 6.25266 17.5025 6.2525C16.2596 6.25217 15.0675 6.74558 14.1885 7.62419C13.3094 8.5028 12.8153 9.69463 12.815 10.9375C12.8147 12.1804 13.3081 13.3725 14.1867 14.2515C15.0653 15.1306 16.2571 15.6247 17.5 15.625Z" fill="#3C3126"/>
</svg>
