<svg width="100" height="100" viewBox="0 0 100 100" fill="none" xmlns="http://www.w3.org/2000/svg">
<g clip-path="url(#clip0_144_127)">
<path d="M50 0C52.3 0.00416667 54.5709 0.158333 56.8125 0.4625C58.9188 0.75625 59.9313 3.1125 58.8375 4.9375L58.75 5.0875C58.4185 5.62841 57.9358 6.06045 57.3617 6.33033C56.7875 6.60021 56.1469 6.69612 55.5188 6.60625C49.3582 5.82051 43.1009 6.35633 37.1636 8.17803C31.2264 9.99973 25.7453 13.0655 21.0855 17.1712C16.4258 21.2769 12.6942 26.3282 10.1394 31.9889C7.58455 37.6495 6.26506 43.7895 6.2688 50C6.2688 74.1875 25.8313 93.75 50.0188 93.75C56.2298 93.7546 62.3705 92.4358 68.0319 89.8813C73.6933 87.3269 78.7454 83.5955 82.8518 78.9356C86.9582 74.2757 90.0245 68.7944 91.8466 62.8567C93.6686 56.9189 94.2046 50.6611 93.4188 44.5C93.3289 43.8719 93.4248 43.2313 93.6947 42.6571C93.9646 42.083 94.3966 41.6003 94.9375 41.2687L95.075 41.1813C96.9 40.0875 99.2626 41.1 99.55 43.2062C99.8625 45.4229 100.019 47.6938 100.019 50.0188C100.019 77.6438 77.6438 100.019 50.0188 100.019C22.3938 100.019 0.0187988 77.6438 0.0187988 50.0188C0.0187988 22.3938 22.3938 0.01875 50.0188 0.01875L50 0Z" fill="#3C3126"/>
<path d="M50 25C51.1062 25 51.5812 26.3187 50.8 27.1L47.1 30.8C46.5543 31.3228 45.8825 31.6953 45.15 31.8812C41.1649 32.9543 37.6452 35.3121 35.1366 38.5891C32.628 41.8661 31.2706 45.8793 31.275 50.0063C31.275 60.3813 39.65 68.7563 50.025 68.7563C58.7125 68.7563 66.025 62.8563 68.15 54.8813C68.3359 54.1488 68.7084 53.477 69.2312 52.9312L72.9312 49.2312C73.7187 48.4437 75.0375 48.9188 75.0375 50.0312C75.0375 63.8438 63.85 75.0312 50.0375 75.0312C36.225 75.0312 25.0375 63.8438 25.0375 50.0312C25.0375 36.2188 36.225 25.0313 50.0375 25.0313L50 25Z" fill="#3C3126"/>
<path d="M78.75 0.0500163C79.3719 0.157776 79.9466 0.451307 80.3984 0.891974C80.8502 1.33264 81.158 1.89979 81.2813 2.51877L84 16.0813L97.5625 18.8C98.1809 18.9239 98.7473 19.232 99.1872 19.6838C99.6272 20.1356 99.9202 20.7099 100.028 21.3313C100.135 21.9527 100.052 22.5921 99.7896 23.1655C99.527 23.7388 99.097 24.2193 98.5563 24.5438L82.9313 33.9188C82.4459 34.2093 81.8907 34.3627 81.325 34.3625H70.1375L55.45 49.05C54.8606 49.6193 54.0713 49.9342 53.2519 49.9271C52.4325 49.92 51.6487 49.5914 51.0693 49.012C50.4899 48.4325 50.1613 47.6488 50.1542 46.8294C50.1471 46.01 50.462 45.2206 51.0313 44.6313L65.7188 29.9438V18.7563L65.75 18.3375C65.8057 17.9178 65.946 17.5138 66.1625 17.15L75.5375 1.52502L75.8125 1.13752C76.1645 0.716032 76.6214 0.394749 77.1371 0.206026C77.6528 0.0173031 78.2091 -0.0321953 78.75 0.0625163V0.0500163Z" fill="#3C3126"/>
</g>
<defs>
<clipPath id="clip0_144_127">
<rect width="100" height="100" fill="white"/>
</clipPath>
</defs>
</svg>
