<svg width="98" height="98" viewBox="0 0 98 98" fill="none" xmlns="http://www.w3.org/2000/svg">
<path d="M21.4734 2.02682C22.0435 1.67937 22.6876 1.49783 23.3424 1.50002C23.9972 1.50221 24.6403 1.68806 25.2084 2.03932C28.8508 4.26429 37.2409 9.63923 44.9242 16.3817C45.1138 16.5519 45.2659 16.7654 45.3696 17.0068C45.4732 17.2482 45.5259 17.5115 45.5237 17.7776C45.5214 18.0436 45.4644 18.3058 45.3567 18.5452C45.2491 18.7846 45.0934 18.9951 44.901 19.1616C38.6609 24.3444 32.1281 29.1035 25.3405 33.4115C24.7402 33.7974 24.0542 34.0008 23.3553 33.9999C22.6565 33.999 21.9709 33.7939 21.3714 33.4065C17.634 31.0065 9.27642 25.4666 2.32759 19.6316C2.07065 19.4112 1.86289 19.1312 1.71965 18.8125C1.57641 18.4938 1.50135 18.1444 1.50002 17.7902C1.49868 17.436 1.57111 17.086 1.71194 16.7661C1.85277 16.4461 2.05842 16.1644 2.31369 15.9417C5.74987 13.0067 13.0254 7.09676 21.4757 2.02932" stroke="#3C3126" stroke-width="3" stroke-linecap="round" stroke-linejoin="round"/>
<path d="M21.4734 34.526C22.0435 34.1786 22.6876 33.997 23.3424 33.9992C23.9972 34.0014 24.6403 34.1873 25.2084 34.5385C28.8508 36.7635 37.2409 42.1384 44.9242 48.8809C45.1138 49.0511 45.2659 49.2646 45.3696 49.506C45.4732 49.7474 45.5259 50.0107 45.5237 50.2768C45.5214 50.5429 45.4644 50.8051 45.3567 51.0444C45.2491 51.2838 45.0934 51.4944 44.901 51.6608C38.6609 56.8436 32.1281 61.6027 25.3405 65.9107C24.7402 66.2966 24.0542 66.5 23.3553 66.4991C22.6565 66.4982 21.9709 66.2931 21.3714 65.9057C17.634 63.5057 9.27642 57.9658 2.32759 52.1308C2.07065 51.9104 1.86289 51.6304 1.71965 51.3117C1.57641 50.993 1.50135 50.6437 1.50002 50.2895C1.49868 49.9353 1.57111 49.5852 1.71194 49.2653C1.85277 48.9453 2.05842 48.6636 2.31369 48.4409C5.74987 45.5059 13.0254 39.596 21.4757 34.5285M45.8835 64.5257C46.4836 64.178 47.1546 63.997 47.8359 63.9992C48.5171 64.0014 49.1871 64.1866 49.7854 64.5382C53.59 66.7632 62.3577 72.1381 70.3839 78.8805C70.5813 79.0452 70.7408 79.2569 70.8497 79.4992C70.9587 79.7414 71.0142 80.0075 71.0119 80.2767C71.0097 80.546 70.9497 80.811 70.8368 81.051C70.7238 81.2911 70.5609 81.4997 70.3608 81.6605C67.1887 84.208 59.7255 89.9554 49.9244 95.9103C49.292 96.2975 48.5771 96.5006 47.85 96.4997C47.1229 96.4989 46.4085 96.294 45.7769 95.9053C41.7684 93.4429 32.6856 87.6779 25.3173 81.678C25.1178 81.5167 24.9556 81.3077 24.8434 81.0674C24.7313 80.8271 24.6722 80.562 24.6708 80.293C24.6695 80.024 24.7259 79.7582 24.8357 79.5167C24.9454 79.2751 25.1055 79.0642 25.3034 78.9005C28.6168 76.1606 36.5689 69.8756 45.8835 64.5257ZM71.5309 2.02639C72.1364 1.67991 72.8117 1.49979 73.4972 1.50197C74.1826 1.50415 74.8569 1.68856 75.4606 2.03889C79.2049 4.21386 87.7224 9.39381 95.6536 15.9187C95.9195 16.1355 96.1345 16.4166 96.2815 16.7393C96.4285 17.062 96.5033 17.4174 96.4999 17.7769C96.4965 18.1365 96.4151 18.4901 96.2621 18.8096C96.1091 19.129 95.8888 19.4053 95.6189 19.6162C89.2029 24.6351 82.5182 29.2413 75.5996 33.411C74.9614 33.797 74.2418 33.9993 73.5102 33.9985C72.7785 33.9976 72.0594 33.7936 71.422 33.406C67.3833 30.9436 58.231 25.1786 50.8095 19.1787C50.6087 19.0183 50.4453 18.8096 50.3323 18.5692C50.2193 18.3288 50.1597 18.0633 50.1584 17.7937C50.157 17.5242 50.2139 17.258 50.3245 17.0163C50.4351 16.7745 50.5964 16.564 50.7956 16.4012C54.1345 13.6613 62.1445 7.37633 71.5309 2.02639Z" stroke="#3C3126" stroke-width="3" stroke-linecap="round" stroke-linejoin="round"/>
<path d="M71.5307 34.524C72.136 34.1771 72.8113 33.9966 73.4967 33.9983C74.1821 34 74.8566 34.184 75.4604 34.534C79.2048 36.7089 87.7222 41.8889 95.6535 48.4138C95.9193 48.6306 96.1344 48.9116 96.2813 49.2344C96.4283 49.5571 96.5031 49.9125 96.4997 50.272C96.4964 50.6315 96.4149 50.9852 96.2619 51.3046C96.1089 51.6241 95.8886 51.9003 95.6187 52.1113C89.2027 57.1301 82.518 61.7364 75.5994 65.9061C74.9612 66.2921 74.2417 66.4944 73.51 66.4936C72.7784 66.4927 72.0592 66.2887 71.4218 65.9011C67.3832 63.4386 58.2308 57.6737 50.8093 51.6738C50.6085 51.5134 50.4452 51.3047 50.3321 51.0643C50.2191 50.8239 50.1596 50.5584 50.1582 50.2888C50.1569 50.0192 50.2138 49.753 50.3244 49.5113C50.435 49.2696 50.5963 49.0591 50.7954 48.8963C54.1343 46.1563 62.1443 39.8739 71.5307 34.524Z" stroke="#3C3126" stroke-width="3" stroke-linecap="round" stroke-linejoin="round"/>
</svg>
