<svg width="98" height="87" viewBox="0 0 98 87" fill="none" xmlns="http://www.w3.org/2000/svg">
<path d="M86.25 11.25H73.2562L66.8672 1.66875C66.5249 1.15571 66.0613 0.735014 65.5176 0.443932C64.9739 0.152851 64.3667 0.000370335 63.75 0H33.75C33.1333 0.000370335 32.5261 0.152851 31.9824 0.443932C31.4387 0.735014 30.9751 1.15571 30.6328 1.66875L24.2391 11.25H11.25C8.26631 11.25 5.40483 12.4353 3.29505 14.545C1.18526 16.6548 0 19.5163 0 22.5V75C0 77.9837 1.18526 80.8452 3.29505 82.955C5.40483 85.0647 8.26631 86.25 11.25 86.25H86.25C89.2337 86.25 92.0952 85.0647 94.205 82.955C96.3147 80.8452 97.5 77.9837 97.5 75V22.5C97.5 19.5163 96.3147 16.6548 94.205 14.545C92.0952 12.4353 89.2337 11.25 86.25 11.25ZM90 75C90 75.9946 89.6049 76.9484 88.9017 77.6517C88.1984 78.3549 87.2446 78.75 86.25 78.75H11.25C10.2554 78.75 9.30161 78.3549 8.59835 77.6517C7.89509 76.9484 7.5 75.9946 7.5 75V22.5C7.5 21.5054 7.89509 20.5516 8.59835 19.8484C9.30161 19.1451 10.2554 18.75 11.25 18.75H26.25C26.8675 18.7504 27.4756 18.5983 28.0202 18.3072C28.5648 18.0161 29.0291 17.595 29.3719 17.0813L35.7562 7.5H61.7391L68.1281 17.0813C68.4709 17.595 68.9352 18.0161 69.4798 18.3072C70.0244 18.5983 70.6325 18.7504 71.25 18.75H86.25C87.2446 18.75 88.1984 19.1451 88.9017 19.8484C89.6049 20.5516 90 21.5054 90 22.5V75ZM48.75 26.25C44.6708 26.25 40.6831 27.4596 37.2914 29.7259C33.8996 31.9922 31.256 35.2134 29.695 38.9822C28.1339 42.7509 27.7255 46.8979 28.5213 50.8987C29.3171 54.8996 31.2815 58.5746 34.1659 61.4591C37.0504 64.3435 40.7254 66.3079 44.7263 67.1037C48.7271 67.8995 52.8741 67.4911 56.6428 65.93C60.4116 64.369 63.6328 61.7254 65.8991 58.3336C68.1654 54.9419 69.375 50.9542 69.375 46.875C69.3688 41.4068 67.1938 36.1644 63.3272 32.2978C59.4606 28.4312 54.2182 26.2562 48.75 26.25ZM48.75 60C46.1541 60 43.6165 59.2302 41.4581 57.788C39.2997 56.3458 37.6175 54.296 36.6241 51.8977C35.6307 49.4994 35.3708 46.8604 35.8772 44.3144C36.3836 41.7684 37.6337 39.4298 39.4692 37.5942C41.3048 35.7587 43.6434 34.5086 46.1894 34.0022C48.7354 33.4958 51.3744 33.7557 53.7727 34.7491C56.171 35.7425 58.2208 37.4247 59.663 39.5831C61.1052 41.7415 61.875 44.2791 61.875 46.875C61.875 50.356 60.4922 53.6944 58.0308 56.1558C55.5694 58.6172 52.231 60 48.75 60Z" fill="#3C3126"/>
</svg>
