<svg width="101" height="101" viewBox="0 0 101 101" fill="none" xmlns="http://www.w3.org/2000/svg">
<path d="M68.4578 99.5V87.0068L79.2357 88.9112C80.1802 89.078 81.1476 89.0377 82.0765 88.7929C83.0055 88.548 83.8759 88.1038 84.6327 87.4885C85.3896 86.8731 86.0164 86.0999 86.4736 85.2178C86.9309 84.3356 87.2085 83.3636 87.2891 82.3633L88.6144 65.88C92.8858 64.8758 95.9566 63.2569 97.9492 61.9067C99.7363 60.6968 99.9441 58.2529 98.7527 56.4042L89.18 41.5542C88.0441 19.2319 70.4134 1.5 48.8323 1.5V99.5" stroke="#3C3126" stroke-width="3" stroke-linecap="round" stroke-linejoin="round"/>
<path d="M1.5 49.8954C1.5 51.8207 2.22977 53.6671 3.52877 55.0285C4.82777 56.3898 6.58959 57.1547 8.42665 57.1547C10.2637 57.1547 12.0255 56.3898 13.3245 55.0285C14.6235 53.6671 15.3533 51.8207 15.3533 49.8954C15.3533 47.9701 14.6235 46.1237 13.3245 44.7623C12.0255 43.401 10.2637 42.6361 8.42665 42.6361C6.58959 42.6361 4.82777 43.401 3.52877 44.7623C2.22977 46.1237 1.5 47.9701 1.5 49.8954ZM13.0444 13.5991C13.0444 14.5524 13.2236 15.4964 13.5717 16.3771C13.9198 17.2578 14.43 18.0581 15.0732 18.7322C15.7164 19.4063 16.48 19.941 17.3204 20.3058C18.1607 20.6706 19.0615 20.8584 19.9711 20.8584C20.8807 20.8584 21.7814 20.6706 22.6218 20.3058C23.4622 19.941 24.2258 19.4063 24.869 18.7322C25.5122 18.0581 26.0224 17.2578 26.3705 16.3771C26.7186 15.4964 26.8977 14.5524 26.8977 13.5991C26.8977 12.6458 26.7186 11.7018 26.3705 10.8211C26.0224 9.94037 25.5122 9.14012 24.869 8.46603C24.2258 7.79195 23.4622 7.25723 22.6218 6.89242C21.7814 6.52761 20.8807 6.33984 19.9711 6.33984C19.0615 6.33984 18.1607 6.52761 17.3204 6.89242C16.48 7.25723 15.7164 7.79195 15.0732 8.46603C14.43 9.14012 13.9198 9.94037 13.5717 10.8211C13.2236 11.7018 13.0444 12.6458 13.0444 13.5991ZM10.7355 88.6114C10.7355 90.5367 11.4653 92.3831 12.7643 93.7445C14.0633 95.1059 15.8251 95.8707 17.6622 95.8707C19.4993 95.8707 21.2611 95.1059 22.5601 93.7445C23.8591 92.3831 24.5888 90.5367 24.5888 88.6114C24.5888 86.6862 23.8591 84.8398 22.5601 83.4784C21.2611 82.117 19.4993 81.3522 17.6622 81.3522C15.8251 81.3522 14.0633 82.117 12.7643 83.4784C11.4653 84.8398 10.7355 86.6862 10.7355 88.6114Z" stroke="#3C3126" stroke-width="3"/>
<path d="M15.3531 49.8951H48.832M48.832 30.5371H36.1331L25.7431 19.6482M48.832 71.6729H33.8242L23.4342 82.5618" stroke="#3C3126" stroke-width="3" stroke-linecap="round" stroke-linejoin="round"/>
</svg>
