<svg width="120" height="120" viewBox="0 0 120 120" fill="none" xmlns="http://www.w3.org/2000/svg">
<path d="M72.5 113.4V108.4C82.25 108.4 90.505 105.022 97.265 98.265C104.025 91.5083 107.405 83.2533 107.405 73.5H112.405C112.405 79.0466 111.362 84.2433 109.275 89.09C107.188 93.9366 104.348 98.1583 100.755 101.755C97.1617 105.352 92.94 108.192 88.09 110.275C83.24 112.358 78.0434 113.397 72.5 113.4ZM72.5 96.48V91.48C77.5 91.48 81.7467 89.7333 85.24 86.24C88.7334 82.7466 90.48 78.5 90.48 73.5H95.48C95.48 79.84 93.235 85.255 88.745 89.745C84.255 94.235 78.84 96.48 72.5 96.48ZM30.635 107.585C29.6417 107.585 28.68 107.417 27.75 107.08C26.82 106.743 25.9833 106.21 25.24 105.48L7.49001 87.73C6.76668 86.9866 6.23334 86.15 5.89001 85.22C5.55334 84.2933 5.38501 83.3316 5.38501 82.335C5.38501 81.325 5.55501 80.375 5.89501 79.485C6.23501 78.595 6.76668 77.7883 7.49001 77.065L21.44 63.115C22.9067 61.6483 24.69 60.91 26.79 60.9C28.8867 60.89 30.6683 61.6183 32.135 63.085L39.445 70.395L46.5 63.335L39.195 56.03C37.725 54.5633 36.99 52.79 36.99 50.71C36.99 48.6333 37.7233 46.8616 39.19 45.395L44.39 40.195C45.86 38.725 47.6233 37.99 49.68 37.99C51.7333 37.99 53.4933 38.7233 54.96 40.19L62.27 47.5L69.325 40.44L62.02 33.135C60.5534 31.6683 59.82 29.8916 59.82 27.805C59.82 25.7183 60.5534 23.94 62.02 22.47L75.97 8.51996C76.7134 7.77663 77.5333 7.21829 78.43 6.84496C79.3267 6.47163 80.2734 6.28663 81.27 6.28996C82.2667 6.29329 83.2234 6.46329 84.14 6.79996C85.0567 7.13663 85.8884 7.67829 86.635 8.42496L104.385 26.175C105.128 26.8983 105.665 27.72 105.995 28.64C106.325 29.56 106.49 30.5266 106.49 31.54C106.49 32.5333 106.325 33.495 105.995 34.425C105.665 35.355 105.128 36.1916 104.385 36.935L90.435 50.885C88.9684 52.3516 87.19 53.085 85.1 53.085C83.01 53.085 81.2334 52.3516 79.77 50.885L72.46 43.58L65.405 50.635L72.71 57.94C74.1767 59.4066 74.9067 61.185 74.9 63.275C74.89 65.3616 74.1517 67.1383 72.685 68.605L67.605 73.68C66.1384 75.15 64.3617 75.9 62.275 75.93C60.1884 75.96 58.4117 75.2433 56.945 73.78L49.635 66.47L42.58 73.53L49.885 80.835C51.3517 82.3016 52.0817 84.085 52.075 86.185C52.065 88.2816 51.325 90.0633 49.855 91.53L35.905 105.48C35.1817 106.207 34.375 106.74 33.485 107.08C32.5983 107.417 31.6483 107.585 30.635 107.585ZM29 102.135C29.45 102.585 29.995 102.81 30.635 102.81C31.275 102.81 31.82 102.585 32.27 102.135L37.81 96.595L16.5 75.29L10.96 80.825C10.5133 81.275 10.29 81.82 10.29 82.46C10.29 83.1 10.5133 83.645 10.96 84.095L29 102.135ZM40.97 93.335L46.51 87.8C46.96 87.35 47.185 86.805 47.185 86.165C47.185 85.525 46.96 84.98 46.51 84.53L28.47 66.49C28.0233 66.0433 27.4783 65.82 26.835 65.82C26.1917 65.82 25.6483 66.0433 25.205 66.49L19.665 72.03L40.97 93.335ZM60.605 70.335C61.055 70.785 61.6 71.01 62.24 71.01C62.8834 71.01 63.4283 70.785 63.875 70.335L69.335 64.875C69.785 64.4283 70.01 63.8833 70.01 63.24C70.01 62.6 69.785 62.055 69.335 61.605L51.3 43.57C50.85 43.12 50.305 42.895 49.665 42.895C49.025 42.895 48.48 43.12 48.03 43.57L42.57 49.03C42.12 49.48 41.895 50.025 41.895 50.665C41.895 51.305 42.12 51.85 42.57 52.3L60.605 70.335ZM83.435 47.415C83.8817 47.8616 84.4267 48.085 85.07 48.085C85.7133 48.085 86.2584 47.8616 86.705 47.415L92.24 41.875L70.935 20.57L65.395 26.105C64.945 26.555 64.72 27.1 64.72 27.74C64.72 28.3833 64.945 28.9283 65.395 29.375L83.435 47.415ZM95.5 38.715L101.04 33.175C101.487 32.725 101.71 32.18 101.71 31.54C101.71 30.9 101.487 30.355 101.04 29.905L83 11.865C82.5534 11.4183 82.0084 11.195 81.365 11.195C80.725 11.195 80.18 11.4183 79.73 11.865L74.19 17.405L95.5 38.715Z" fill="#3C3126"/>
</svg>
